<svg width="21" height="15" viewBox="0 0 21 15" fill="none" xmlns="http://www.w3.org/2000/svg">
<path d="M19.9273 6.90644C17.7463 2.31212 14.4496 0 10.0301 0C5.60831 0 2.31383 2.31212 0.13285 6.90874C0.0453696 7.09398 0 7.29629 0 7.50115C0 7.70601 0.0453696 7.90832 0.13285 8.09356C2.31383 12.6879 5.61061 15 10.0301 15C14.4519 15 17.7463 12.6879 19.9273 8.09126C20.1045 7.71856 20.1045 7.28604 19.9273 6.90644ZM10.0301 13.3436C6.3192 13.3436 3.60217 11.4617 1.68576 7.5C3.60217 3.53834 6.3192 1.65644 10.0301 1.65644C13.741 1.65644 16.458 3.53834 18.3744 7.5C16.4603 11.4617 13.7433 13.3436 10.0301 13.3436ZM9.93806 3.45092C7.70187 3.45092 5.88898 5.2638 5.88898 7.5C5.88898 9.7362 7.70187 11.5491 9.93806 11.5491C12.1743 11.5491 13.9871 9.7362 13.9871 7.5C13.9871 5.2638 12.1743 3.45092 9.93806 3.45092ZM9.93806 10.0767C8.51398 10.0767 7.36138 8.92408 7.36138 7.5C7.36138 6.07592 8.51398 4.92331 9.93806 4.92331C11.3621 4.92331 12.5148 6.07592 12.5148 7.5C12.5148 8.92408 11.3621 10.0767 9.93806 10.0767Z" fill="#BDBDBD"/>
</svg>
