<svg width="16" height="13" viewBox="0 0 16 13" fill="none" xmlns="http://www.w3.org/2000/svg">
<path d="M15.4286 0.381104H0.571429C0.255357 0.381104 0 0.636461 0 0.952532V12.3811C0 12.6972 0.255357 12.9525 0.571429 12.9525H15.4286C15.7446 12.9525 16 12.6972 16 12.3811V0.952532C16 0.636461 15.7446 0.381104 15.4286 0.381104ZM13.9857 2.32575L8.35179 6.70967C8.2125 6.8186 8.01786 6.8186 7.87857 6.70967L2.24286 2.32575C2.22161 2.30935 2.20603 2.28672 2.19829 2.26102C2.19056 2.23533 2.19106 2.20785 2.19972 2.18245C2.20838 2.15706 2.22478 2.135 2.2466 2.11939C2.26843 2.10378 2.29459 2.09538 2.32143 2.09539H13.9071C13.934 2.09538 13.9601 2.10378 13.982 2.11939C14.0038 2.135 14.0202 2.15706 14.0289 2.18245C14.0375 2.20785 14.038 2.23533 14.0303 2.26102C14.0225 2.28672 14.007 2.30935 13.9857 2.32575Z" fill="#2F3846"/>
</svg>
