<svg width="16" height="13" viewBox="0 0 16 13" fill="none" xmlns="http://www.w3.org/2000/svg">
<path d="M15.4286 0H0.571429C0.255357 0 0 0.255357 0 0.571429V12C0 12.3161 0.255357 12.5714 0.571429 12.5714H15.4286C15.7446 12.5714 16 12.3161 16 12V0.571429C16 0.255357 15.7446 0 15.4286 0ZM13.9857 1.94464L8.35179 6.32857C8.2125 6.4375 8.01786 6.4375 7.87857 6.32857L2.24286 1.94464C2.22161 1.92825 2.20603 1.90562 2.19829 1.87992C2.19056 1.85422 2.19106 1.82675 2.19972 1.80135C2.20838 1.77595 2.22478 1.7539 2.2466 1.73829C2.26843 1.72267 2.29459 1.71428 2.32143 1.71429H13.9071C13.934 1.71428 13.9601 1.72267 13.982 1.73829C14.0038 1.7539 14.0202 1.77595 14.0289 1.80135C14.0375 1.82675 14.038 1.85422 14.0303 1.87992C14.0225 1.90562 14.007 1.92825 13.9857 1.94464Z" fill="white"/>
</svg>
