<svg width="299" height="16" viewBox="0 0 299 16" fill="none" xmlns="http://www.w3.org/2000/svg">
<line y1="8.5" x2="83" y2="8.5" stroke="#2F3846"/>
<line x1="216" y1="8.5" x2="299" y2="8.5" stroke="#2F3846"/>
<circle cx="88.5" cy="8.5" r="2.5" stroke="#2F3846"/>
<circle cx="210.5" cy="8.5" r="2.5" stroke="#2F3846"/>
<path d="M117.365 5.902C117.317 5.986 117.265 6.048 117.209 6.088C117.157 6.124 117.091 6.142 117.011 6.142C116.927 6.142 116.835 6.112 116.735 6.052C116.639 5.988 116.523 5.918 116.387 5.842C116.251 5.766 116.091 5.698 115.907 5.638C115.727 5.574 115.513 5.542 115.265 5.542C115.041 5.542 114.845 5.57 114.677 5.626C114.509 5.678 114.367 5.752 114.251 5.848C114.139 5.944 114.055 6.06 113.999 6.196C113.943 6.328 113.915 6.474 113.915 6.634C113.915 6.838 113.971 7.008 114.083 7.144C114.199 7.28 114.351 7.396 114.539 7.492C114.727 7.588 114.941 7.674 115.181 7.75C115.421 7.826 115.667 7.908 115.919 7.996C116.171 8.08 116.417 8.18 116.657 8.296C116.897 8.408 117.111 8.552 117.299 8.728C117.487 8.9 117.637 9.112 117.749 9.364C117.865 9.616 117.923 9.922 117.923 10.282C117.923 10.674 117.855 11.042 117.719 11.386C117.587 11.726 117.391 12.024 117.131 12.28C116.875 12.532 116.561 12.732 116.189 12.88C115.817 13.024 115.391 13.096 114.911 13.096C114.635 13.096 114.363 13.068 114.095 13.012C113.827 12.96 113.569 12.884 113.321 12.784C113.077 12.684 112.847 12.564 112.631 12.424C112.415 12.284 112.223 12.128 112.055 11.956L112.529 11.182C112.569 11.126 112.621 11.08 112.685 11.044C112.749 11.004 112.817 10.984 112.889 10.984C112.989 10.984 113.097 11.026 113.213 11.11C113.329 11.19 113.467 11.28 113.627 11.38C113.787 11.48 113.973 11.572 114.185 11.656C114.401 11.736 114.659 11.776 114.959 11.776C115.419 11.776 115.775 11.668 116.027 11.452C116.279 11.232 116.405 10.918 116.405 10.51C116.405 10.282 116.347 10.096 116.231 9.952C116.119 9.808 115.969 9.688 115.781 9.592C115.593 9.492 115.379 9.408 115.139 9.34C114.899 9.272 114.655 9.198 114.407 9.118C114.159 9.038 113.915 8.942 113.675 8.83C113.435 8.718 113.221 8.572 113.033 8.392C112.845 8.212 112.693 7.988 112.577 7.72C112.465 7.448 112.409 7.114 112.409 6.718C112.409 6.402 112.471 6.094 112.595 5.794C112.723 5.494 112.907 5.228 113.147 4.996C113.387 4.764 113.683 4.578 114.035 4.438C114.387 4.298 114.791 4.228 115.247 4.228C115.759 4.228 116.231 4.308 116.663 4.468C117.095 4.628 117.463 4.852 117.767 5.14L117.365 5.902ZM126.645 4.324V13H125.025V9.208H120.951V13H119.331V4.324H120.951V8.056H125.025V4.324H126.645ZM136.851 8.662C136.851 9.298 136.745 9.888 136.533 10.432C136.325 10.972 136.029 11.44 135.645 11.836C135.261 12.232 134.799 12.542 134.259 12.766C133.719 12.986 133.119 13.096 132.459 13.096C131.803 13.096 131.205 12.986 130.665 12.766C130.125 12.542 129.661 12.232 129.273 11.836C128.889 11.44 128.591 10.972 128.379 10.432C128.167 9.888 128.061 9.298 128.061 8.662C128.061 8.026 128.167 7.438 128.379 6.898C128.591 6.354 128.889 5.884 129.273 5.488C129.661 5.092 130.125 4.784 130.665 4.564C131.205 4.34 131.803 4.228 132.459 4.228C132.899 4.228 133.313 4.28 133.701 4.384C134.089 4.484 134.445 4.628 134.769 4.816C135.093 5 135.383 5.226 135.639 5.494C135.899 5.758 136.119 6.054 136.299 6.382C136.479 6.71 136.615 7.066 136.707 7.45C136.803 7.834 136.851 8.238 136.851 8.662ZM135.201 8.662C135.201 8.186 135.137 7.76 135.009 7.384C134.881 7.004 134.699 6.682 134.463 6.418C134.227 6.154 133.939 5.952 133.599 5.812C133.263 5.672 132.883 5.602 132.459 5.602C132.035 5.602 131.653 5.672 131.313 5.812C130.977 5.952 130.689 6.154 130.449 6.418C130.213 6.682 130.031 7.004 129.903 7.384C129.775 7.76 129.711 8.186 129.711 8.662C129.711 9.138 129.775 9.566 129.903 9.946C130.031 10.322 130.213 10.642 130.449 10.906C130.689 11.166 130.977 11.366 131.313 11.506C131.653 11.646 132.035 11.716 132.459 11.716C132.883 11.716 133.263 11.646 133.599 11.506C133.939 11.366 134.227 11.166 134.463 10.906C134.699 10.642 134.881 10.322 135.009 9.946C135.137 9.566 135.201 9.138 135.201 8.662ZM149.637 4.324L146.943 13H145.485L143.589 7.072C143.537 6.928 143.489 6.752 143.445 6.544C143.421 6.644 143.397 6.738 143.373 6.826C143.349 6.914 143.323 6.996 143.295 7.072L141.381 13H139.917L137.229 4.324H138.579C138.719 4.324 138.835 4.358 138.927 4.426C139.023 4.49 139.087 4.578 139.119 4.69L140.595 9.88C140.627 10.008 140.657 10.148 140.685 10.3C140.717 10.448 140.749 10.604 140.781 10.768C140.813 10.6 140.847 10.442 140.883 10.294C140.923 10.146 140.965 10.008 141.009 9.88L142.713 4.69C142.745 4.598 142.807 4.514 142.899 4.438C142.995 4.362 143.111 4.324 143.247 4.324H143.721C143.861 4.324 143.975 4.358 144.063 4.426C144.151 4.494 144.217 4.582 144.261 4.69L145.959 9.88C146.043 10.128 146.119 10.414 146.187 10.738C146.239 10.422 146.297 10.136 146.361 9.88L147.837 4.69C147.861 4.59 147.921 4.504 148.017 4.432C148.117 4.36 148.235 4.324 148.371 4.324H149.637ZM162.946 4.324V13H161.524V7.396C161.524 7.172 161.536 6.93 161.56 6.67L158.938 11.596C158.814 11.832 158.624 11.95 158.368 11.95H158.14C157.884 11.95 157.694 11.832 157.57 11.596L154.918 6.652C154.93 6.784 154.94 6.914 154.948 7.042C154.956 7.17 154.96 7.288 154.96 7.396V13H153.538V4.324H154.756C154.828 4.324 154.89 4.326 154.942 4.33C154.994 4.334 155.04 4.344 155.08 4.36C155.124 4.376 155.162 4.402 155.194 4.438C155.23 4.474 155.264 4.522 155.296 4.582L157.894 9.4C157.962 9.528 158.024 9.66 158.08 9.796C158.14 9.932 158.198 10.072 158.254 10.216C158.31 10.068 158.368 9.926 158.428 9.79C158.488 9.65 158.552 9.516 158.62 9.388L161.182 4.582C161.214 4.522 161.248 4.474 161.284 4.438C161.32 4.402 161.358 4.376 161.398 4.36C161.442 4.344 161.49 4.334 161.542 4.33C161.594 4.326 161.656 4.324 161.728 4.324H162.946ZM173.156 8.662C173.156 9.298 173.05 9.888 172.838 10.432C172.63 10.972 172.334 11.44 171.95 11.836C171.566 12.232 171.104 12.542 170.564 12.766C170.024 12.986 169.424 13.096 168.764 13.096C168.108 13.096 167.51 12.986 166.97 12.766C166.43 12.542 165.966 12.232 165.578 11.836C165.194 11.44 164.896 10.972 164.684 10.432C164.472 9.888 164.366 9.298 164.366 8.662C164.366 8.026 164.472 7.438 164.684 6.898C164.896 6.354 165.194 5.884 165.578 5.488C165.966 5.092 166.43 4.784 166.97 4.564C167.51 4.34 168.108 4.228 168.764 4.228C169.204 4.228 169.618 4.28 170.006 4.384C170.394 4.484 170.75 4.628 171.074 4.816C171.398 5 171.688 5.226 171.944 5.494C172.204 5.758 172.424 6.054 172.604 6.382C172.784 6.71 172.92 7.066 173.012 7.45C173.108 7.834 173.156 8.238 173.156 8.662ZM171.506 8.662C171.506 8.186 171.442 7.76 171.314 7.384C171.186 7.004 171.004 6.682 170.768 6.418C170.532 6.154 170.244 5.952 169.904 5.812C169.568 5.672 169.188 5.602 168.764 5.602C168.34 5.602 167.958 5.672 167.618 5.812C167.282 5.952 166.994 6.154 166.754 6.418C166.518 6.682 166.336 7.004 166.208 7.384C166.08 7.76 166.016 8.186 166.016 8.662C166.016 9.138 166.08 9.566 166.208 9.946C166.336 10.322 166.518 10.642 166.754 10.906C166.994 11.166 167.282 11.366 167.618 11.506C167.958 11.646 168.34 11.716 168.764 11.716C169.188 11.716 169.568 11.646 169.904 11.506C170.244 11.366 170.532 11.166 170.768 10.906C171.004 10.642 171.186 10.322 171.314 9.946C171.442 9.566 171.506 9.138 171.506 8.662ZM177.195 8.452C177.499 8.452 177.763 8.414 177.987 8.338C178.215 8.262 178.401 8.158 178.545 8.026C178.693 7.89 178.803 7.73 178.875 7.546C178.947 7.362 178.983 7.16 178.983 6.94C178.983 6.5 178.837 6.162 178.545 5.926C178.257 5.69 177.815 5.572 177.219 5.572H176.187V8.452H177.195ZM181.347 13H179.889C179.613 13 179.413 12.892 179.289 12.676L177.465 9.898C177.397 9.794 177.321 9.72 177.237 9.676C177.157 9.632 177.037 9.61 176.877 9.61H176.187V13H174.573V4.324H177.219C177.807 4.324 178.311 4.386 178.731 4.51C179.155 4.63 179.501 4.8 179.769 5.02C180.041 5.24 180.241 5.504 180.369 5.812C180.497 6.116 180.561 6.452 180.561 6.82C180.561 7.112 180.517 7.388 180.429 7.648C180.345 7.908 180.221 8.144 180.057 8.356C179.897 8.568 179.697 8.754 179.457 8.914C179.221 9.074 178.951 9.2 178.647 9.292C178.751 9.352 178.847 9.424 178.935 9.508C179.023 9.588 179.103 9.684 179.175 9.796L181.347 13ZM183.904 5.608V8.014H186.94V9.256H183.904V11.71H187.756V13H182.284V4.324H187.756V5.608H183.904Z" fill="#2F3846"/>
</svg>
