<svg width="205" height="25" viewBox="0 0 205 25" fill="none" xmlns="http://www.w3.org/2000/svg">
<path d="M185.784 17.9694C185.784 17.8681 185.804 17.7709 185.843 17.6776C185.885 17.5843 185.939 17.5039 186.004 17.4364C186.072 17.3689 186.151 17.3153 186.242 17.2756C186.336 17.234 186.435 17.2131 186.54 17.2131C186.641 17.2131 186.739 17.234 186.832 17.2756C186.925 17.3153 187.006 17.3689 187.073 17.4364C187.141 17.5039 187.194 17.5843 187.234 17.6776C187.276 17.7709 187.296 17.8681 187.296 17.9694C187.296 18.0746 187.276 18.1728 187.234 18.2641C187.194 18.3554 187.141 18.4348 187.073 18.5023C187.006 18.5698 186.925 18.6234 186.832 18.6631C186.739 18.7048 186.641 18.7256 186.54 18.7256C186.435 18.7256 186.336 18.7048 186.242 18.6631C186.151 18.6234 186.072 18.5698 186.004 18.5023C185.939 18.4348 185.885 18.3554 185.843 18.2641C185.804 18.1728 185.784 18.0746 185.784 17.9694Z" fill="#2F3846"/>
<path d="M189.919 14.0929C190.052 14.0929 190.176 14.1038 190.292 14.1256C190.409 14.1475 190.515 14.1762 190.61 14.212C190.705 14.2457 190.788 14.2824 190.857 14.3221C190.927 14.3598 190.983 14.3946 191.027 14.4263V14.212H192.009V15.8346H190.967C190.967 15.7016 190.951 15.5905 190.917 15.5012C190.885 15.4118 190.841 15.3394 190.786 15.2838C190.732 15.2282 190.669 15.1885 190.595 15.1647C190.522 15.1409 190.442 15.129 190.357 15.129C190.24 15.129 190.14 15.1518 190.056 15.1975C189.973 15.2411 189.904 15.3126 189.851 15.4118C189.799 15.5111 189.76 15.6431 189.732 15.8078C189.706 15.9726 189.693 16.173 189.693 16.4092C189.693 16.6494 189.707 16.8509 189.735 17.0136C189.765 17.1744 189.808 17.3054 189.866 17.4066C189.925 17.5059 190.001 17.5783 190.092 17.624C190.183 17.6677 190.293 17.6895 190.42 17.6895C190.505 17.6895 190.587 17.6736 190.667 17.6418C190.746 17.6081 190.816 17.5575 190.875 17.49C190.937 17.4225 190.984 17.3382 191.018 17.2369C191.054 17.1357 191.072 17.0136 191.072 16.8707H192.108C192.108 17.1228 192.068 17.361 191.989 17.5853C191.909 17.8096 191.785 18.0061 191.616 18.1748C191.448 18.3435 191.233 18.4775 190.973 18.5767C190.713 18.676 190.405 18.7256 190.047 18.7256C189.726 18.7256 189.421 18.6819 189.133 18.5946C188.848 18.5073 188.597 18.3703 188.383 18.1837C188.171 17.9971 188.002 17.758 187.877 17.4662C187.754 17.1724 187.692 16.8201 187.692 16.4092C187.692 15.9984 187.755 15.647 187.88 15.3553C188.007 15.0615 188.174 14.8213 188.38 14.6347C188.589 14.4482 188.826 14.3112 189.092 14.2239C189.358 14.1365 189.634 14.0929 189.919 14.0929Z" fill="#2F3846"/>
<path d="M192.504 16.4092C192.504 16.0262 192.566 15.6907 192.691 15.4029C192.818 15.1131 192.997 14.8709 193.227 14.6764C193.457 14.4819 193.73 14.336 194.046 14.2388C194.364 14.1415 194.714 14.0929 195.097 14.0929C195.478 14.0929 195.827 14.1415 196.145 14.2388C196.463 14.336 196.735 14.4819 196.964 14.6764C197.194 14.8709 197.372 15.1131 197.497 15.4029C197.624 15.6907 197.687 16.0262 197.687 16.4092C197.687 16.7903 197.624 17.1258 197.497 17.4156C197.372 17.7034 197.194 17.9455 196.964 18.142C196.735 18.3366 196.463 18.4824 196.145 18.5797C195.827 18.677 195.478 18.7256 195.097 18.7256C194.714 18.7256 194.364 18.677 194.046 18.5797C193.73 18.4824 193.457 18.3366 193.227 18.142C192.997 17.9455 192.818 17.7034 192.691 17.4156C192.566 17.1258 192.504 16.7903 192.504 16.4092ZM194.504 16.4092C194.504 16.6494 194.513 16.8509 194.531 17.0136C194.549 17.1744 194.58 17.3054 194.624 17.4066C194.669 17.5059 194.73 17.5783 194.805 17.624C194.881 17.6677 194.978 17.6895 195.097 17.6895C195.21 17.6895 195.305 17.6677 195.383 17.624C195.46 17.5783 195.521 17.5059 195.564 17.4066C195.61 17.3054 195.642 17.1744 195.66 17.0136C195.678 16.8509 195.686 16.6494 195.686 16.4092C195.686 16.173 195.678 15.9726 195.66 15.8078C195.642 15.6431 195.61 15.5111 195.564 15.4118C195.521 15.3126 195.46 15.2411 195.383 15.1975C195.305 15.1518 195.21 15.129 195.097 15.129C194.978 15.129 194.881 15.1518 194.805 15.1975C194.73 15.2411 194.669 15.3126 194.624 15.4118C194.58 15.5111 194.549 15.6431 194.531 15.8078C194.513 15.9726 194.504 16.173 194.504 16.4092Z" fill="#2F3846"/>
<path d="M202.24 18.5976V17.493C202.414 17.493 202.528 17.4702 202.582 17.4245C202.638 17.3769 202.665 17.2885 202.665 17.1595V15.4505L201.647 18.5976H200.501L199.465 15.6173V17.1952C199.465 17.2607 199.471 17.3133 199.483 17.353C199.494 17.3908 199.515 17.4205 199.545 17.4424C199.577 17.4642 199.62 17.4781 199.676 17.484C199.734 17.49 199.805 17.493 199.89 17.493V18.5976H197.964V17.493C198.139 17.493 198.264 17.4702 198.339 17.4245C198.415 17.3769 198.452 17.2885 198.452 17.1595V15.653C198.452 15.522 198.415 15.4337 198.339 15.388C198.264 15.3404 198.139 15.3166 197.964 15.3166V14.212H200.799L201.483 16.2693L202.079 14.212H204.877V15.3166C204.703 15.3166 204.578 15.3404 204.502 15.388C204.429 15.4337 204.392 15.522 204.392 15.653V17.1595C204.392 17.2885 204.429 17.3769 204.502 17.4245C204.578 17.4702 204.703 17.493 204.877 17.493V18.5976H202.24Z" fill="#2F3846"/>
<path d="M10.0991 18.4475C10.5358 18.4475 10.9605 18.3999 11.3734 18.3046C11.7942 18.2093 12.1594 18.0108 12.469 17.7091C12.7866 17.4074 13.0447 16.9747 13.2431 16.411C13.4416 15.8394 13.5409 15.0732 13.5409 14.1125C13.5409 13.1677 13.4456 12.4095 13.255 11.8379C13.0645 11.2583 12.8144 10.8137 12.5048 10.504C12.2031 10.1944 11.8378 9.99191 11.4091 9.89663C10.9883 9.79342 10.5516 9.74181 10.0991 9.74181H8.97961V18.4475H10.0991ZM0 22.8659V18.4475C0.698679 18.4475 1.19887 18.3562 1.50057 18.1736C1.80227 17.983 1.95312 17.6297 1.95312 17.1137V11.0876C1.95312 10.5636 1.80227 10.2102 1.50057 10.0276C1.19887 9.83709 0.698679 9.74181 0 9.74181V5.32346H12.6358C13.7711 5.32346 14.8707 5.47431 15.9346 5.77602C16.9985 6.07772 17.9433 6.56997 18.7691 7.25277C19.6027 7.93557 20.2696 8.84068 20.7698 9.96809C21.2779 11.0876 21.532 12.469 21.532 14.1125C21.532 15.756 21.2819 17.1375 20.7817 18.257C20.2895 19.3764 19.6146 20.2776 18.7571 20.9604C17.9076 21.6432 16.9112 22.1354 15.7679 22.4371C14.6246 22.7388 13.4099 22.8897 12.1237 22.8897L0 22.8659Z" fill="#2F3846"/>
<path d="M31.4525 9.74181V17.1613C31.4525 17.6933 31.5835 18.0426 31.8455 18.2093C32.1075 18.3681 32.4409 18.4475 32.8458 18.4475H33.1674V22.8659H23.1398V18.4475H23.6042C24.025 18.4475 24.3347 18.3165 24.5332 18.0545C24.7396 17.7846 24.8428 17.4948 24.8428 17.1851V15.5059C24.8428 15.0454 24.6959 14.708 24.4022 14.4936C24.1163 14.2713 23.7829 14.1602 23.4018 14.1602H23.1398V9.74181H31.4525ZM24.6522 6.81213C24.6522 6.12933 24.9103 5.54577 25.4264 5.06146C25.9504 4.57715 26.6927 4.33499 27.6534 4.33499C28.63 4.33499 29.3802 4.57715 29.9042 5.06146C30.4362 5.54577 30.7022 6.12933 30.7022 6.81213C30.7022 7.5108 30.4362 8.1023 29.9042 8.58661C29.3802 9.06298 28.63 9.30117 27.6534 9.30117C26.6927 9.30117 25.9504 9.06298 25.4264 8.58661C24.9103 8.1023 24.6522 7.5108 24.6522 6.81213Z" fill="#2F3846"/>
<path d="M40.6941 17.0422C40.7258 18.2252 40.9481 19.043 41.361 19.4955C41.7818 19.9401 42.3812 20.1624 43.1593 20.1624C43.4213 20.1624 43.6754 20.1267 43.9215 20.0553C44.1756 19.9759 44.4098 19.8528 44.6241 19.6861C44.8385 19.5114 45.0211 19.2851 45.172 19.0072C45.3308 18.7214 45.434 18.3641 45.4816 17.9354H49.8166C49.6578 18.9596 49.364 19.8171 48.9353 20.5078C48.5145 21.1986 47.9707 21.7583 47.3037 22.187C46.6368 22.6078 45.8587 22.9095 44.9695 23.0921C44.0882 23.2827 43.1037 23.378 42.016 23.378C40.8965 23.378 39.8445 23.235 38.86 22.9492C37.8755 22.6634 37.0101 22.2307 36.2638 21.6511C35.5254 21.0636 34.9459 20.3292 34.5251 19.4479C34.1043 18.5587 33.8939 17.5027 33.8939 16.28C33.8939 15.1129 34.0924 14.0887 34.4893 13.2074C34.8863 12.3261 35.4421 11.5917 36.1566 11.0042C36.8791 10.4087 37.7287 9.96015 38.7052 9.65845C39.6897 9.35675 40.7695 9.20589 41.9445 9.20589C43.3895 9.20589 44.6321 9.39644 45.6722 9.77754C46.7122 10.1586 47.5618 10.6906 48.2208 11.3734C48.8797 12.0562 49.364 12.8779 49.6737 13.8386C49.9833 14.7993 50.1302 15.8672 50.1143 17.0422H40.6941ZM42.4566 12.4214C41.9009 12.4214 41.488 12.6199 41.2181 13.0169C40.9561 13.4059 40.7814 14.053 40.6941 14.9581H44.1835C44.1359 14.18 43.9691 13.5647 43.6833 13.1121C43.3975 12.6517 42.9886 12.4214 42.4566 12.4214Z" fill="#2F3846"/>
<path d="M59.4512 5.32346V9.74181H63.0121V14.1602H59.4512V17.8163C59.4512 18.3403 59.5227 18.7691 59.6656 19.1025C59.8164 19.436 60.1221 19.6027 60.5826 19.6027C60.8367 19.6027 61.0391 19.5551 61.19 19.4598C61.3488 19.3566 61.4718 19.2256 61.5592 19.0668C61.6544 18.9001 61.714 18.7135 61.7378 18.5071C61.7616 18.2927 61.7735 18.0624 61.7735 17.8163V16.0418H63.1431V17.9592C63.1431 18.7294 63.0597 19.4479 62.893 20.1148C62.7342 20.7817 62.4563 21.3573 62.0594 21.8417C61.6703 22.326 61.1384 22.711 60.4635 22.9969C59.7887 23.2827 58.9391 23.4256 57.9149 23.4256C56.7796 23.4256 55.8745 23.2867 55.1996 23.0088C54.5247 22.7309 54.0126 22.3498 53.6633 21.8655C53.314 21.3812 53.0837 20.8056 52.9726 20.1386C52.8693 19.4717 52.8177 18.7452 52.8177 17.9592V14.1602H50.948V10.2301C51.5434 10.2301 52.0952 10.1031 52.6034 9.849C53.1194 9.58699 53.5601 9.22971 53.9253 8.77716C54.2985 8.31667 54.5843 7.79266 54.7828 7.20513C54.9892 6.61761 55.0924 5.99038 55.0924 5.32346H59.4512Z" fill="#2F3846"/>
<path d="M105.073 18.9358C105.399 18.9358 105.657 18.8802 105.847 18.7691C106.046 18.6579 106.193 18.4793 106.288 18.2331C106.391 17.987 106.455 17.6694 106.479 17.2804C106.502 16.8914 106.514 16.4269 106.514 15.887H110.683V22.8659H93.9024V18.9358L102.191 9.25353H99.8095C99.4839 9.25353 99.2219 9.31308 99.0234 9.43217C98.825 9.54332 98.6781 9.72196 98.5828 9.96809C98.4875 10.2063 98.428 10.5239 98.4042 10.9208C98.3803 11.3099 98.3684 11.7704 98.3684 12.3023H94.2002V5.32346H110.683V9.25353L102.394 18.9358H105.073Z" fill="#2F3846"/>
<path d="M111.671 16.28C111.671 15.1129 111.874 14.0887 112.278 13.2074C112.683 12.3261 113.259 11.5917 114.005 11.0042C114.76 10.4087 115.665 9.96015 116.721 9.65845C117.777 9.35675 118.956 9.20589 120.258 9.20589C121.56 9.20589 122.739 9.35675 123.795 9.65845C124.851 9.96015 125.752 10.4087 126.498 11.0042C127.245 11.5917 127.82 12.3261 128.225 13.2074C128.638 14.0887 128.844 15.1129 128.844 16.28C128.844 17.4313 128.638 18.4515 128.225 19.3407C127.82 20.2299 127.245 20.9763 126.498 21.5797C125.752 22.1751 124.851 22.6237 123.795 22.9254C122.739 23.2271 121.56 23.378 120.258 23.378C118.956 23.378 117.777 23.2271 116.721 22.9254C115.665 22.6237 114.76 22.1751 114.005 21.5797C113.259 20.9763 112.683 20.2299 112.278 19.3407C111.874 18.4515 111.671 17.4313 111.671 16.28ZM118.448 16.28C118.448 16.9469 118.475 17.5146 118.531 17.983C118.594 18.4435 118.694 18.8167 118.829 19.1025C118.964 19.3804 119.146 19.5868 119.376 19.7218C119.607 19.8488 119.9 19.9124 120.258 19.9124C120.615 19.9124 120.905 19.8488 121.127 19.7218C121.357 19.5868 121.54 19.3804 121.675 19.1025C121.818 18.8167 121.917 18.4435 121.973 17.983C122.028 17.5146 122.056 16.9469 122.056 16.28C122.056 14.9462 121.929 14.0133 121.675 13.4813C121.429 12.9414 120.956 12.6715 120.258 12.6715C119.9 12.6715 119.607 12.735 119.376 12.8621C119.146 12.9811 118.964 13.1836 118.829 13.4694C118.694 13.7473 118.594 14.1205 118.531 14.5889C118.475 15.0494 118.448 15.6131 118.448 16.28Z" fill="#2F3846"/>
<path d="M141.29 15.2558C141.29 14.9462 141.25 14.7001 141.17 14.5174C141.099 14.3269 141.004 14.184 140.885 14.0887C140.773 13.9855 140.646 13.918 140.504 13.8862C140.361 13.8545 140.222 13.8386 140.087 13.8386C139.571 13.8386 139.186 13.9895 138.932 14.2912C138.677 14.5929 138.55 15.0216 138.55 15.5774V17.2804C138.55 17.7012 138.622 18.0029 138.765 18.1855C138.916 18.3602 139.201 18.4475 139.622 18.4475H140.265V22.8659H130.309V18.4475H131.012C131.337 18.4475 131.583 18.3443 131.75 18.1379C131.925 17.9235 132.012 17.6694 132.012 17.3757V15.1129C132.012 14.7397 131.901 14.4897 131.679 14.3626C131.464 14.2276 131.218 14.1602 130.94 14.1602H130.309V9.74181H137.383L137.133 13.0169H137.336C137.51 11.7942 138.046 10.8533 138.943 10.1944C139.841 9.53539 141.059 9.20589 142.6 9.20589C143.687 9.20589 144.573 9.36072 145.255 9.67036C145.938 9.98 146.466 10.373 146.839 10.8494C147.22 11.3178 147.478 11.8299 147.613 12.3857C147.748 12.9335 147.816 13.4496 147.816 13.9339V17.2804C147.816 17.7012 147.887 18.0029 148.03 18.1855C148.181 18.3602 148.467 18.4475 148.888 18.4475H149.531V22.8659H141.29V15.2558Z" fill="#2F3846"/>
<path d="M157.057 17.0422C157.089 18.2252 157.312 19.043 157.724 19.4955C158.145 19.9401 158.745 20.1624 159.523 20.1624C159.785 20.1624 160.039 20.1267 160.285 20.0553C160.539 19.9759 160.773 19.8528 160.988 19.6861C161.202 19.5114 161.385 19.2851 161.535 19.0072C161.694 18.7214 161.797 18.3641 161.845 17.9354H166.18C166.021 18.9596 165.727 19.8171 165.299 20.5078C164.878 21.1986 164.334 21.7583 163.667 22.187C163 22.6078 162.222 22.9095 161.333 23.0921C160.452 23.2827 159.467 23.378 158.379 23.378C157.26 23.378 156.208 23.235 155.223 22.9492C154.239 22.6634 153.374 22.2307 152.627 21.6511C151.889 21.0636 151.309 20.3292 150.888 19.4479C150.468 18.5587 150.257 17.5027 150.257 16.28C150.257 15.1129 150.456 14.0887 150.853 13.2074C151.25 12.3261 151.805 11.5917 152.52 11.0042C153.243 10.4087 154.092 9.96015 155.069 9.65845C156.053 9.35675 157.133 9.20589 158.308 9.20589C159.753 9.20589 160.995 9.39644 162.036 9.77754C163.076 10.1586 163.925 10.6906 164.584 11.3734C165.243 12.0562 165.727 12.8779 166.037 13.8386C166.347 14.7993 166.494 15.8672 166.478 17.0422H157.057ZM158.82 12.4214C158.264 12.4214 157.851 12.6199 157.581 13.0169C157.319 13.4059 157.145 14.053 157.057 14.9581H160.547C160.499 14.18 160.333 13.5647 160.047 13.1121C159.761 12.6517 159.352 12.4214 158.82 12.4214Z" fill="#2F3846"/>
<path d="M181.483 14.0887H178.208C177.978 13.5171 177.621 13.0645 177.137 12.731C176.652 12.3976 176.148 12.2309 175.624 12.2309C175.267 12.2309 174.981 12.2983 174.767 12.4333C174.56 12.5603 174.457 12.7549 174.457 13.0169C174.457 13.3424 174.64 13.5885 175.005 13.7552C175.37 13.914 175.827 14.0569 176.374 14.184C176.93 14.311 177.53 14.4658 178.173 14.6484C178.816 14.8231 179.411 15.0772 179.959 15.4106C180.515 15.7441 180.975 16.1927 181.341 16.7564C181.706 17.3201 181.888 18.0624 181.888 18.9834C181.888 19.698 181.73 20.3212 181.412 20.8532C181.094 21.3851 180.658 21.8218 180.102 22.1632C179.554 22.5046 178.907 22.7587 178.161 22.9254C177.414 23.1001 176.609 23.1874 175.743 23.1874C174.902 23.1874 174.104 23.104 173.349 22.9373C172.603 22.7785 171.889 22.5046 171.206 22.1156L171.087 22.9373H167.943V18.1617H171.206C171.515 18.7969 171.904 19.2891 172.373 19.6384C172.849 19.9878 173.373 20.1624 173.945 20.1624C174.382 20.1624 174.691 20.0831 174.874 19.9243C175.064 19.7575 175.16 19.5749 175.16 19.3764C175.16 19.0509 174.977 18.8008 174.612 18.6262C174.247 18.4435 173.794 18.2847 173.254 18.1498C172.722 18.0069 172.135 17.852 171.492 17.6853C170.848 17.5106 170.257 17.2606 169.717 16.935C169.185 16.6095 168.737 16.1728 168.371 15.625C168.006 15.0692 167.823 14.3428 167.823 13.4456C167.823 12.8025 167.966 12.215 168.252 11.683C168.546 11.1511 168.963 10.7025 169.503 10.3373C170.043 9.97206 170.678 9.69418 171.408 9.50363C172.139 9.30514 172.94 9.20589 173.814 9.20589C174.79 9.20589 175.668 9.31705 176.446 9.53936C177.232 9.75372 177.819 9.99191 178.208 10.2539L178.327 9.40835H181.483V14.0887Z" fill="#2F3846"/>
<path fill-rule="evenodd" clip-rule="evenodd" d="M73.2596 0.949767C72.3518 0.838503 72.3518 0.838782 72.3517 0.839074L72.3517 0.839716L72.3515 0.841211L72.351 0.84504L72.3498 0.856015C72.3488 0.864787 72.3475 0.876457 72.346 0.890886C72.3431 0.919735 72.3393 0.959676 72.3353 1.00961C72.3272 1.10937 72.3183 1.24962 72.3133 1.42147C72.3035 1.76367 72.3093 2.23906 72.3729 2.77417C72.4966 3.81543 72.8561 5.22778 73.8996 6.2614C74.0884 6.44838 74.2896 6.61312 74.4989 6.75827C71.4953 6.80223 68.1094 9.54719 68.1094 13.4567C68.1094 16.6034 69.6298 19.467 71.4408 21.5184C72.3514 22.5498 73.3588 23.4035 74.3327 24.0058C75.2827 24.5933 76.2956 25 77.1999 25C77.6464 25 78.0097 24.9528 78.3213 24.8611C78.6436 24.7663 78.87 24.6354 79.0416 24.5211C79.1367 24.4577 79.1842 24.4239 79.2131 24.4034C79.2457 24.3802 79.2545 24.3739 79.2808 24.3613C79.2847 24.3595 79.2875 24.3582 79.2956 24.3565C79.3056 24.3543 79.334 24.3493 79.3899 24.3493C79.4457 24.3493 79.4741 24.3543 79.4841 24.3565C79.4923 24.3582 79.4951 24.3595 79.4989 24.3613C79.5252 24.3739 79.534 24.3802 79.5666 24.4033C79.5955 24.4239 79.6431 24.4577 79.7381 24.5211C79.9097 24.6354 80.1362 24.7663 80.4585 24.8611C80.77 24.9528 81.1333 25 81.5798 25C82.4841 25 83.497 24.5933 84.4471 24.0058C85.4209 23.4035 86.4283 22.5498 87.3389 21.5184C89.1499 19.467 90.6704 16.6034 90.6704 13.4567C90.6704 9.51545 87.2292 6.75774 84.2078 6.75774C82.7232 6.75774 81.3533 6.93849 80.1782 7.49597C80.2036 6.94304 80.321 6.37028 80.6048 5.91363C81.4833 4.49967 82.5253 3.47459 82.892 3.17187L81.7276 1.7611C81.355 2.06862 80.6249 2.77905 79.872 3.76246C79.6445 3.00595 79.2599 2.21517 78.6099 1.57134C77.5678 0.539218 76.146 0.184671 75.0985 0.0625804C74.5598 -0.000212469 74.0812 -0.00597282 73.7366 0.00375197C73.5636 0.00863526 73.4225 0.0174823 73.3221 0.0253925C73.2719 0.0293514 73.2318 0.0330876 73.2028 0.0359978C73.1884 0.0374534 73.1767 0.0387038 73.1679 0.0396742L73.1569 0.040911L73.1531 0.0413548L73.151 0.0416056C73.1507 0.04164 73.1505 0.041673 73.2596 0.949767ZM74.1402 1.83044C74.361 1.83425 74.6153 1.84791 74.8867 1.87955C75.779 1.98355 76.7105 2.26471 77.3226 2.871C77.9332 3.47579 78.2156 4.39434 78.3201 5.27438C78.3515 5.53861 78.3653 5.78637 78.3694 6.00229C78.1485 5.99848 77.8942 5.98483 77.6228 5.95319C76.7305 5.84918 75.799 5.56803 75.1869 4.96174C74.5763 4.35695 74.2939 3.4384 74.1894 2.55836C74.158 2.29413 74.1442 2.04636 74.1402 1.83044ZM73.2596 0.949767L73.151 0.0416056L72.439 0.127218L72.3517 0.839074L73.2596 0.949767ZM74.5719 8.587C72.4835 8.587 69.9386 10.6013 69.9386 13.4567C69.9386 16.022 71.1922 18.4727 72.8121 20.3077C73.617 21.2194 74.4893 21.9519 75.2948 22.45C76.1241 22.9628 76.7902 23.1707 77.1999 23.1707C77.5199 23.1707 77.7018 23.1366 77.8048 23.1063C77.8971 23.0791 77.9546 23.0472 78.0271 22.9989C78.0337 22.9946 78.0445 22.9869 78.0589 22.9767C78.1366 22.922 78.318 22.7942 78.4911 22.7113C78.7526 22.5861 79.0421 22.52 79.3899 22.52C79.7377 22.52 80.0271 22.5861 80.2886 22.7113C80.4618 22.7942 80.6431 22.922 80.7208 22.9767C80.7352 22.9869 80.7461 22.9946 80.7526 22.9989C80.8251 23.0472 80.8826 23.0791 80.9749 23.1063C81.078 23.1366 81.2599 23.1707 81.5798 23.1707C81.9895 23.1707 82.6556 22.9628 83.4849 22.45C84.2904 21.9519 85.1627 21.2194 85.9676 20.3077C87.5875 18.4727 88.8411 16.022 88.8411 13.4567C88.8411 10.6013 86.2963 8.587 84.2078 8.587C82.2474 8.587 80.9275 8.93881 80.0122 9.78869L79.3899 10.3666L78.7675 9.78869C77.8523 8.93881 76.5323 8.587 74.5719 8.587Z" fill="url(#paint0_linear)"/>
<defs>
<linearGradient id="paint0_linear" x1="69.024" y1="12.5" x2="89.7557" y2="12.5" gradientUnits="userSpaceOnUse">
<stop stop-color="#56CCF2"/>
<stop offset="1" stop-color="#2D9CDB"/>
</linearGradient>
</defs>
</svg>
