<svg width="205" height="25" viewBox="0 0 205 25" fill="none" xmlns="http://www.w3.org/2000/svg">
<path d="M185.784 17.6344C185.784 17.5331 185.804 17.4359 185.843 17.3426C185.885 17.2493 185.939 17.1689 186.004 17.1014C186.072 17.0339 186.151 16.9803 186.242 16.9406C186.336 16.899 186.435 16.8781 186.54 16.8781C186.641 16.8781 186.739 16.899 186.832 16.9406C186.925 16.9803 187.006 17.0339 187.073 17.1014C187.141 17.1689 187.194 17.2493 187.234 17.3426C187.276 17.4359 187.296 17.5331 187.296 17.6344C187.296 17.7396 187.276 17.8378 187.234 17.9291C187.194 18.0204 187.141 18.0998 187.073 18.1673C187.006 18.2348 186.925 18.2884 186.832 18.3281C186.739 18.3698 186.641 18.3906 186.54 18.3906C186.435 18.3906 186.336 18.3698 186.242 18.3281C186.151 18.2884 186.072 18.2348 186.004 18.1673C185.939 18.0998 185.885 18.0204 185.843 17.9291C185.804 17.8378 185.784 17.7396 185.784 17.6344Z" fill="white"/>
<path d="M189.919 13.7579C190.052 13.7579 190.176 13.7688 190.292 13.7906C190.409 13.8125 190.515 13.8412 190.61 13.877C190.705 13.9107 190.788 13.9474 190.857 13.9871C190.927 14.0249 190.983 14.0596 191.027 14.0913V13.877H192.009V15.4996H190.967C190.967 15.3666 190.951 15.2555 190.917 15.1662C190.885 15.0768 190.841 15.0044 190.786 14.9488C190.732 14.8932 190.669 14.8535 190.595 14.8297C190.522 14.8059 190.442 14.794 190.357 14.794C190.24 14.794 190.14 14.8168 190.056 14.8625C189.973 14.9061 189.904 14.9776 189.851 15.0768C189.799 15.1761 189.76 15.3081 189.732 15.4728C189.706 15.6376 189.693 15.838 189.693 16.0742C189.693 16.3144 189.707 16.5159 189.735 16.6786C189.765 16.8394 189.808 16.9704 189.866 17.0716C189.925 17.1709 190.001 17.2433 190.092 17.289C190.183 17.3327 190.293 17.3545 190.42 17.3545C190.505 17.3545 190.587 17.3386 190.667 17.3069C190.746 17.2731 190.816 17.2225 190.875 17.155C190.937 17.0875 190.984 17.0032 191.018 16.9019C191.054 16.8007 191.072 16.6786 191.072 16.5357H192.108C192.108 16.7878 192.068 17.026 191.989 17.2503C191.909 17.4746 191.785 17.6711 191.616 17.8398C191.448 18.0085 191.233 18.1425 190.973 18.2417C190.713 18.341 190.405 18.3906 190.047 18.3906C189.726 18.3906 189.421 18.3469 189.133 18.2596C188.848 18.1723 188.597 18.0353 188.383 17.8487C188.171 17.6621 188.002 17.423 187.877 17.1312C187.754 16.8374 187.692 16.4851 187.692 16.0742C187.692 15.6634 187.755 15.312 187.88 15.0203C188.007 14.7265 188.174 14.4863 188.38 14.2998C188.589 14.1132 188.826 13.9762 189.092 13.8889C189.358 13.8016 189.634 13.7579 189.919 13.7579Z" fill="white"/>
<path d="M192.504 16.0742C192.504 15.6912 192.566 15.3557 192.691 15.0679C192.818 14.7781 192.997 14.536 193.227 14.3414C193.457 14.1469 193.73 14.001 194.046 13.9038C194.364 13.8065 194.714 13.7579 195.097 13.7579C195.478 13.7579 195.827 13.8065 196.145 13.9038C196.463 14.001 196.735 14.1469 196.964 14.3414C197.194 14.536 197.372 14.7781 197.497 15.0679C197.624 15.3557 197.687 15.6912 197.687 16.0742C197.687 16.4553 197.624 16.7908 197.497 17.0806C197.372 17.3684 197.194 17.6105 196.964 17.807C196.735 18.0016 196.463 18.1475 196.145 18.2447C195.827 18.342 195.478 18.3906 195.097 18.3906C194.714 18.3906 194.364 18.342 194.046 18.2447C193.73 18.1475 193.457 18.0016 193.227 17.807C192.997 17.6105 192.818 17.3684 192.691 17.0806C192.566 16.7908 192.504 16.4553 192.504 16.0742ZM194.504 16.0742C194.504 16.3144 194.513 16.5159 194.531 16.6786C194.549 16.8394 194.58 16.9704 194.624 17.0716C194.669 17.1709 194.73 17.2433 194.805 17.289C194.881 17.3327 194.978 17.3545 195.097 17.3545C195.21 17.3545 195.305 17.3327 195.383 17.289C195.46 17.2433 195.521 17.1709 195.564 17.0716C195.61 16.9704 195.642 16.8394 195.66 16.6786C195.678 16.5159 195.686 16.3144 195.686 16.0742C195.686 15.838 195.678 15.6376 195.66 15.4728C195.642 15.3081 195.61 15.1761 195.564 15.0768C195.521 14.9776 195.46 14.9061 195.383 14.8625C195.305 14.8168 195.21 14.794 195.097 14.794C194.978 14.794 194.881 14.8168 194.805 14.8625C194.73 14.9061 194.669 14.9776 194.624 15.0768C194.58 15.1761 194.549 15.3081 194.531 15.4728C194.513 15.6376 194.504 15.838 194.504 16.0742Z" fill="white"/>
<path d="M202.24 18.2626V17.158C202.414 17.158 202.528 17.1352 202.582 17.0895C202.638 17.0419 202.665 16.9535 202.665 16.8245V15.1155L201.647 18.2626H200.501L199.465 15.2823V16.8603C199.465 16.9258 199.471 16.9784 199.483 17.0181C199.494 17.0558 199.515 17.0855 199.545 17.1074C199.577 17.1292 199.62 17.1431 199.676 17.1491C199.734 17.155 199.805 17.158 199.89 17.158V18.2626H197.964V17.158C198.139 17.158 198.264 17.1352 198.339 17.0895C198.415 17.0419 198.452 16.9535 198.452 16.8245V15.318C198.452 15.187 198.415 15.0987 198.339 15.053C198.264 15.0054 198.139 14.9816 197.964 14.9816V13.877H200.799L201.483 15.9343L202.079 13.877H204.877V14.9816C204.703 14.9816 204.578 15.0054 204.502 15.053C204.429 15.0987 204.392 15.187 204.392 15.318V16.8245C204.392 16.9535 204.429 17.0419 204.502 17.0895C204.578 17.1352 204.703 17.158 204.877 17.158V18.2626H202.24Z" fill="white"/>
<path d="M10.0991 18.1125C10.5358 18.1125 10.9605 18.0649 11.3734 17.9696C11.7942 17.8743 12.1594 17.6758 12.469 17.3741C12.7866 17.0724 13.0447 16.6397 13.2431 16.076C13.4416 15.5044 13.5409 14.7382 13.5409 13.7775C13.5409 12.8327 13.4456 12.0745 13.255 11.5029C13.0645 10.9233 12.8144 10.4787 12.5048 10.169C12.2031 9.85938 11.8378 9.65692 11.4091 9.56164C10.9883 9.45843 10.5516 9.40682 10.0991 9.40682H8.97961V18.1125H10.0991ZM0 22.5309V18.1125C0.698679 18.1125 1.19887 18.0212 1.50057 17.8386C1.80227 17.6481 1.95312 17.2947 1.95312 16.7787V10.7526C1.95312 10.2286 1.80227 9.87525 1.50057 9.69265C1.19887 9.5021 0.698679 9.40682 0 9.40682V4.98847H12.6358C13.7711 4.98847 14.8707 5.13932 15.9346 5.44103C16.9985 5.74273 17.9433 6.23498 18.7691 6.91778C19.6027 7.60058 20.2696 8.50568 20.7698 9.6331C21.2779 10.7526 21.532 12.1341 21.532 13.7775C21.532 15.421 21.2819 16.8025 20.7817 17.922C20.2895 19.0414 19.6146 19.9426 18.7571 20.6254C17.9076 21.3082 16.9112 21.8004 15.7679 22.1021C14.6246 22.4038 13.4099 22.5547 12.1237 22.5547L0 22.5309Z" fill="white"/>
<path d="M31.4525 9.40682V16.8263C31.4525 17.3583 31.5835 17.7076 31.8455 17.8743C32.1075 18.0331 32.4409 18.1125 32.8458 18.1125H33.1674V22.5309H23.1398V18.1125H23.6042C24.025 18.1125 24.3347 17.9815 24.5332 17.7195C24.7396 17.4496 24.8428 17.1598 24.8428 16.8501V15.1709C24.8428 14.7104 24.6959 14.373 24.4022 14.1586C24.1163 13.9363 23.7829 13.8252 23.4018 13.8252H23.1398V9.40682H31.4525ZM24.6522 6.47713C24.6522 5.79433 24.9103 5.21078 25.4264 4.72647C25.9504 4.24216 26.6927 4 27.6534 4C28.63 4 29.3802 4.24216 29.9042 4.72647C30.4362 5.21078 30.7022 5.79433 30.7022 6.47713C30.7022 7.17581 30.4362 7.76731 29.9042 8.25162C29.3802 8.72799 28.63 8.96618 27.6534 8.96618C26.6927 8.96618 25.9504 8.72799 25.4264 8.25162C24.9103 7.76731 24.6522 7.17581 24.6522 6.47713Z" fill="white"/>
<path d="M40.6941 16.7072C40.7258 17.8902 40.9481 18.708 41.361 19.1605C41.7818 19.6052 42.3812 19.8275 43.1593 19.8275C43.4213 19.8275 43.6754 19.7917 43.9215 19.7203C44.1756 19.6409 44.4098 19.5178 44.6241 19.3511C44.8385 19.1764 45.0211 18.9501 45.172 18.6723C45.3308 18.3864 45.434 18.0292 45.4816 17.6004H49.8166C49.6578 18.6246 49.364 19.4821 48.9353 20.1728C48.5145 20.8636 47.9707 21.4233 47.3037 21.852C46.6368 22.2728 45.8587 22.5745 44.9695 22.7571C44.0882 22.9477 43.1037 23.043 42.016 23.043C40.8965 23.043 39.8445 22.9001 38.86 22.6142C37.8755 22.3284 37.0101 21.8957 36.2638 21.3161C35.5254 20.7286 34.9459 19.9942 34.5251 19.1129C34.1043 18.2237 33.8939 17.1677 33.8939 15.945C33.8939 14.7779 34.0924 13.7537 34.4893 12.8724C34.8863 11.9911 35.4421 11.2567 36.1566 10.6692C36.8791 10.0737 37.7287 9.62516 38.7052 9.32346C39.6897 9.02175 40.7695 8.8709 41.9445 8.8709C43.3895 8.8709 44.6321 9.06145 45.6722 9.44255C46.7122 9.82365 47.5618 10.3556 48.2208 11.0384C48.8797 11.7212 49.364 12.5429 49.6737 13.5036C49.9833 14.4643 50.1302 15.5322 50.1143 16.7072H40.6941ZM42.4566 12.0864C41.9009 12.0864 41.488 12.2849 41.2181 12.6819C40.9561 13.0709 40.7814 13.718 40.6941 14.6231H44.1835C44.1359 13.845 43.9691 13.2297 43.6833 12.7772C43.3975 12.3167 42.9886 12.0864 42.4566 12.0864Z" fill="white"/>
<path d="M59.4512 4.98847V9.40682H63.0121V13.8252H59.4512V17.4813C59.4512 18.0053 59.5227 18.4341 59.6656 18.7675C59.8164 19.101 60.1221 19.2677 60.5826 19.2677C60.8367 19.2677 61.0391 19.2201 61.19 19.1248C61.3488 19.0216 61.4718 18.8906 61.5592 18.7318C61.6544 18.5651 61.714 18.3785 61.7378 18.1721C61.7616 17.9577 61.7735 17.7275 61.7735 17.4813V15.7068H63.1431V17.6242C63.1431 18.3944 63.0597 19.1129 62.893 19.7798C62.7342 20.4467 62.4563 21.0224 62.0594 21.5067C61.6703 21.991 61.1384 22.376 60.4635 22.6619C59.7887 22.9477 58.9391 23.0906 57.9149 23.0906C56.7796 23.0906 55.8745 22.9517 55.1996 22.6738C54.5247 22.3959 54.0126 22.0148 53.6633 21.5305C53.314 21.0462 53.0837 20.4706 52.9726 19.8036C52.8693 19.1367 52.8177 18.4103 52.8177 17.6242V13.8252H50.948V9.8951C51.5434 9.8951 52.0952 9.76807 52.6034 9.51401C53.1194 9.252 53.5601 8.89472 53.9253 8.44217C54.2985 7.98168 54.5843 7.45767 54.7828 6.87014C54.9892 6.28262 55.0924 5.65539 55.0924 4.98847H59.4512Z" fill="white"/>
<path d="M105.073 18.6008C105.399 18.6008 105.657 18.5452 105.847 18.4341C106.046 18.3229 106.193 18.1443 106.288 17.8982C106.391 17.652 106.455 17.3344 106.479 16.9454C106.502 16.5564 106.514 16.0919 106.514 15.552H110.683V22.5309H93.9024V18.6008L102.191 8.91854H99.8095C99.4839 8.91854 99.2219 8.97809 99.0234 9.09718C98.825 9.20833 98.6781 9.38697 98.5828 9.6331C98.4875 9.87128 98.428 10.1889 98.4042 10.5858C98.3803 10.9749 98.3684 11.4354 98.3684 11.9673H94.2002V4.98847H110.683V8.91854L102.394 18.6008H105.073Z" fill="white"/>
<path d="M111.671 15.945C111.671 14.7779 111.874 13.7537 112.278 12.8724C112.683 11.9911 113.259 11.2567 114.005 10.6692C114.76 10.0737 115.665 9.62516 116.721 9.32346C117.777 9.02175 118.956 8.8709 120.258 8.8709C121.56 8.8709 122.739 9.02175 123.795 9.32346C124.851 9.62516 125.752 10.0737 126.498 10.6692C127.245 11.2567 127.82 11.9911 128.225 12.8724C128.638 13.7537 128.844 14.7779 128.844 15.945C128.844 17.0963 128.638 18.1165 128.225 19.0057C127.82 19.8949 127.245 20.6413 126.498 21.2447C125.752 21.8401 124.851 22.2887 123.795 22.5904C122.739 22.8921 121.56 23.043 120.258 23.043C118.956 23.043 117.777 22.8921 116.721 22.5904C115.665 22.2887 114.76 21.8401 114.005 21.2447C113.259 20.6413 112.683 19.8949 112.278 19.0057C111.874 18.1165 111.671 17.0963 111.671 15.945ZM118.448 15.945C118.448 16.6119 118.475 17.1796 118.531 17.6481C118.594 18.1086 118.694 18.4817 118.829 18.7675C118.964 19.0454 119.146 19.2518 119.376 19.3868C119.607 19.5138 119.9 19.5774 120.258 19.5774C120.615 19.5774 120.905 19.5138 121.127 19.3868C121.357 19.2518 121.54 19.0454 121.675 18.7675C121.818 18.4817 121.917 18.1086 121.973 17.6481C122.028 17.1796 122.056 16.6119 122.056 15.945C122.056 14.6112 121.929 13.6783 121.675 13.1463C121.429 12.6065 120.956 12.3365 120.258 12.3365C119.9 12.3365 119.607 12.4 119.376 12.5271C119.146 12.6462 118.964 12.8486 118.829 13.1344C118.694 13.4123 118.594 13.7855 118.531 14.2539C118.475 14.7144 118.448 15.2781 118.448 15.945Z" fill="white"/>
<path d="M141.29 14.9208C141.29 14.6112 141.25 14.3651 141.17 14.1825C141.099 13.9919 141.004 13.849 140.885 13.7537C140.773 13.6505 140.646 13.583 140.504 13.5513C140.361 13.5195 140.222 13.5036 140.087 13.5036C139.571 13.5036 139.186 13.6545 138.932 13.9562C138.677 14.2579 138.55 14.6866 138.55 15.2424V16.9454C138.55 17.3662 138.622 17.6679 138.765 17.8505C138.916 18.0252 139.201 18.1125 139.622 18.1125H140.265V22.5309H130.309V18.1125H131.012C131.337 18.1125 131.583 18.0093 131.75 17.8029C131.925 17.5885 132.012 17.3344 132.012 17.0407V14.7779C132.012 14.4048 131.901 14.1547 131.679 14.0276C131.464 13.8927 131.218 13.8252 130.94 13.8252H130.309V9.40682H137.383L137.133 12.6819H137.336C137.51 11.4592 138.046 10.5184 138.943 9.85938C139.841 9.20039 141.059 8.8709 142.6 8.8709C143.687 8.8709 144.573 9.02572 145.255 9.33537C145.938 9.64501 146.466 10.038 146.839 10.5144C147.22 10.9828 147.478 11.4949 147.613 12.0507C147.748 12.5985 147.816 13.1146 147.816 13.5989V16.9454C147.816 17.3662 147.887 17.6679 148.03 17.8505C148.181 18.0252 148.467 18.1125 148.888 18.1125H149.531V22.5309H141.29V14.9208Z" fill="white"/>
<path d="M157.057 16.7072C157.089 17.8902 157.312 18.708 157.724 19.1605C158.145 19.6052 158.745 19.8275 159.523 19.8275C159.785 19.8275 160.039 19.7917 160.285 19.7203C160.539 19.6409 160.773 19.5178 160.988 19.3511C161.202 19.1764 161.385 18.9501 161.535 18.6723C161.694 18.3864 161.797 18.0292 161.845 17.6004H166.18C166.021 18.6246 165.727 19.4821 165.299 20.1728C164.878 20.8636 164.334 21.4233 163.667 21.852C163 22.2728 162.222 22.5745 161.333 22.7571C160.452 22.9477 159.467 23.043 158.379 23.043C157.26 23.043 156.208 22.9001 155.223 22.6142C154.239 22.3284 153.374 21.8957 152.627 21.3161C151.889 20.7286 151.309 19.9942 150.888 19.1129C150.468 18.2237 150.257 17.1677 150.257 15.945C150.257 14.7779 150.456 13.7537 150.853 12.8724C151.25 11.9911 151.805 11.2567 152.52 10.6692C153.243 10.0737 154.092 9.62516 155.069 9.32346C156.053 9.02175 157.133 8.8709 158.308 8.8709C159.753 8.8709 160.995 9.06145 162.036 9.44255C163.076 9.82365 163.925 10.3556 164.584 11.0384C165.243 11.7212 165.727 12.5429 166.037 13.5036C166.347 14.4643 166.494 15.5322 166.478 16.7072H157.057ZM158.82 12.0864C158.264 12.0864 157.851 12.2849 157.581 12.6819C157.319 13.0709 157.145 13.718 157.057 14.6231H160.547C160.499 13.845 160.333 13.2297 160.047 12.7772C159.761 12.3167 159.352 12.0864 158.82 12.0864Z" fill="white"/>
<path d="M181.483 13.7537H178.208C177.978 13.1821 177.621 12.7295 177.137 12.3961C176.652 12.0626 176.148 11.8959 175.624 11.8959C175.267 11.8959 174.981 11.9634 174.767 12.0983C174.56 12.2254 174.457 12.4199 174.457 12.6819C174.457 13.0074 174.64 13.2535 175.005 13.4203C175.37 13.579 175.827 13.722 176.374 13.849C176.93 13.976 177.53 14.1308 178.173 14.3135C178.816 14.4881 179.411 14.7422 179.959 15.0756C180.515 15.4091 180.975 15.8577 181.341 16.4214C181.706 16.9851 181.888 17.7275 181.888 18.6484C181.888 19.363 181.73 19.9862 181.412 20.5182C181.094 21.0501 180.658 21.4868 180.102 21.8282C179.554 22.1696 178.907 22.4237 178.161 22.5904C177.414 22.7651 176.609 22.8524 175.743 22.8524C174.902 22.8524 174.104 22.7691 173.349 22.6023C172.603 22.4435 171.889 22.1696 171.206 21.7806L171.087 22.6023H167.943V17.8267H171.206C171.515 18.4619 171.904 18.9541 172.373 19.3034C172.849 19.6528 173.373 19.8275 173.945 19.8275C174.382 19.8275 174.691 19.7481 174.874 19.5893C175.064 19.4225 175.16 19.2399 175.16 19.0414C175.16 18.7159 174.977 18.4658 174.612 18.2912C174.247 18.1086 173.794 17.9498 173.254 17.8148C172.722 17.6719 172.135 17.5171 171.492 17.3503C170.848 17.1757 170.257 16.9256 169.717 16.6C169.185 16.2745 168.737 15.8378 168.371 15.29C168.006 14.7342 167.823 14.0078 167.823 13.1106C167.823 12.4675 167.966 11.88 168.252 11.348C168.546 10.8161 168.963 10.3675 169.503 10.0023C170.043 9.63707 170.678 9.35918 171.408 9.16864C172.139 8.97015 172.94 8.8709 173.814 8.8709C174.79 8.8709 175.668 8.98206 176.446 9.20436C177.232 9.41873 177.819 9.65692 178.208 9.91892L178.327 9.07336H181.483V13.7537Z" fill="white"/>
<path fill-rule="evenodd" clip-rule="evenodd" d="M73.2595 0.949767C72.3517 0.838503 72.3516 0.838782 72.3516 0.839074L72.3515 0.839716L72.3514 0.841211L72.3509 0.84504L72.3496 0.856015C72.3486 0.864787 72.3474 0.876457 72.3459 0.890886C72.3429 0.919735 72.3391 0.959676 72.3351 1.00961C72.3271 1.10937 72.3182 1.24962 72.3132 1.42147C72.3034 1.76367 72.3092 2.23906 72.3728 2.77417C72.4965 3.81543 72.8559 5.22778 73.8995 6.2614C74.0883 6.44838 74.2895 6.61312 74.4987 6.75827C71.4952 6.80223 68.1093 9.54719 68.1093 13.4567C68.1093 16.6034 69.6297 19.467 71.4407 21.5184C72.3513 22.5498 73.3587 23.4035 74.3326 24.0058C75.2826 24.5933 76.2955 25 77.1998 25C77.6463 25 78.0096 24.9528 78.3211 24.8611C78.6434 24.7663 78.8699 24.6354 79.0415 24.5211C79.1365 24.4577 79.1841 24.4239 79.213 24.4034C79.2456 24.3802 79.2544 24.3739 79.2807 24.3613C79.2845 24.3595 79.2873 24.3582 79.2955 24.3565C79.3055 24.3543 79.3339 24.3493 79.3897 24.3493C79.4456 24.3493 79.474 24.3543 79.484 24.3565C79.4921 24.3582 79.4949 24.3595 79.4988 24.3613C79.5251 24.3739 79.5339 24.3802 79.5665 24.4033C79.5954 24.4239 79.6429 24.4577 79.738 24.5211C79.9096 24.6354 80.136 24.7663 80.4583 24.8611C80.7699 24.9528 81.1332 25 81.5797 25C82.484 25 83.4969 24.5933 84.4469 24.0058C85.4208 23.4035 86.4282 22.5498 87.3388 21.5184C89.1498 19.467 90.6702 16.6034 90.6702 13.4567C90.6702 9.51545 87.2291 6.75774 84.2077 6.75774C82.7231 6.75774 81.3532 6.93849 80.1781 7.49597C80.2035 6.94304 80.3209 6.37028 80.6046 5.91363C81.4831 4.49967 82.5252 3.47459 82.8919 3.17187L81.7275 1.7611C81.3549 2.06862 80.6248 2.77905 79.8719 3.76246C79.6444 3.00595 79.2598 2.21517 78.6098 1.57134C77.5677 0.539218 76.1459 0.184671 75.0984 0.0625804C74.5597 -0.000212469 74.081 -0.00597282 73.7365 0.00375197C73.5635 0.00863526 73.4223 0.0174823 73.322 0.0253925C73.2718 0.0293514 73.2317 0.0330876 73.2027 0.0359978C73.1882 0.0374534 73.1765 0.0387038 73.1678 0.0396742L73.1568 0.040911L73.153 0.0413548L73.1509 0.0416056C73.1506 0.04164 73.1503 0.041673 73.2595 0.949767ZM74.14 1.83044C74.3609 1.83425 74.6152 1.84791 74.8866 1.87955C75.7789 1.98355 76.7104 2.26471 77.3225 2.871C77.9331 3.47579 78.2154 4.39434 78.32 5.27438C78.3514 5.53861 78.3652 5.78637 78.3692 6.00229C78.1484 5.99848 77.8941 5.98483 77.6226 5.95319C76.7303 5.84918 75.7989 5.56803 75.1868 4.96174C74.5762 4.35695 74.2938 3.4384 74.1893 2.55836C74.1579 2.29413 74.1441 2.04636 74.14 1.83044ZM73.2595 0.949767L73.1509 0.0416056L72.4389 0.127218L72.3516 0.839074L73.2595 0.949767ZM74.5718 8.587C72.4833 8.587 69.9385 10.6013 69.9385 13.4567C69.9385 16.022 71.1921 18.4727 72.812 20.3077C73.6169 21.2194 74.4892 21.9519 75.2947 22.45C76.124 22.9628 76.7901 23.1707 77.1998 23.1707C77.5198 23.1707 77.7016 23.1366 77.8047 23.1063C77.897 23.0791 77.9545 23.0472 78.027 22.9989C78.0335 22.9946 78.0444 22.9869 78.0588 22.9767C78.1365 22.922 78.3178 22.7942 78.491 22.7113C78.7525 22.5861 79.042 22.52 79.3897 22.52C79.7375 22.52 80.027 22.5861 80.2885 22.7113C80.4616 22.7942 80.643 22.922 80.7207 22.9767C80.7351 22.9869 80.7459 22.9946 80.7525 22.9989C80.825 23.0472 80.8825 23.0791 80.9748 23.1063C81.0779 23.1366 81.2597 23.1707 81.5797 23.1707C81.9894 23.1707 82.6555 22.9628 83.4848 22.45C84.2903 21.9519 85.1626 21.2194 85.9675 20.3077C87.5874 18.4727 88.841 16.022 88.841 13.4567C88.841 10.6013 86.2962 8.587 84.2077 8.587C82.2473 8.587 80.9274 8.93881 80.0121 9.78869L79.3897 10.3666L78.7674 9.78869C77.8521 8.93881 76.5322 8.587 74.5718 8.587Z" fill="url(#paint0_linear)"/>
<defs>
<linearGradient id="paint0_linear" x1="69.0239" y1="12.5" x2="89.7556" y2="12.5" gradientUnits="userSpaceOnUse">
<stop stop-color="#56CCF2"/>
<stop offset="1" stop-color="#2D9CDB"/>
</linearGradient>
</defs>
</svg>
